<svg width="132" height="128" viewBox="0 0 132 128" fill="none" xmlns="http://www.w3.org/2000/svg">
<path d="M125.5 111.019V98H127.625C128.189 98 128.729 97.7761 129.128 97.3776C129.526 96.9791 129.75 96.4386 129.75 95.875V70.375C129.75 69.8114 129.526 69.2709 129.128 68.8724C128.729 68.4739 128.189 68.25 127.625 68.25C124.808 68.2532 122.107 69.3736 120.115 71.3655C118.124 73.3574 117.003 76.058 117 78.875V85.25H112.75V76.75C112.747 74.4964 111.851 72.3359 110.258 70.7424C108.664 69.1489 106.504 68.2525 104.25 68.25H53.25C50.661 68.2514 48.0991 68.7781 45.7194 69.7981C43.3398 70.8181 41.1918 72.3103 39.4054 74.1843C38.7531 72.8572 37.831 71.6808 36.6979 70.7306C35.5649 69.7804 34.2459 69.0773 32.8254 68.6662C31.4049 68.2551 29.9143 68.1451 28.4488 68.3433C26.9834 68.5415 25.5755 69.0436 24.3153 69.8172C23.0551 70.5909 21.9703 71.6192 21.1304 72.8363C20.2905 74.0534 19.714 75.4324 19.4377 76.8852C19.1615 78.3379 19.1917 79.8323 19.5263 81.2727C19.8609 82.7131 20.4925 84.0678 21.3809 85.25H15V57.625C14.9969 55.1767 14.1497 52.8044 12.6014 50.9079C11.053 49.0114 8.89816 47.7068 6.50002 47.2138V11.755L13.755 4.5H63.875V19.375H59.625C59.0614 19.375 58.5209 19.5989 58.1224 19.9974C57.7239 20.3959 57.5 20.9364 57.5 21.5V36.375C57.5024 38.2589 58.1294 40.0888 59.283 41.5783C60.4366 43.0677 62.0516 44.1325 63.875 44.6059V55.5C63.875 56.0636 64.0989 56.6041 64.4974 57.0026C64.8959 57.4011 65.4364 57.625 66 57.625C66.5636 57.625 67.1041 57.4011 67.5026 57.0026C67.9011 56.6041 68.125 56.0636 68.125 55.5V44.6059C69.9485 44.1325 71.5634 43.0677 72.717 41.5783C73.8706 40.0888 74.4977 38.2589 74.5 36.375V21.5C74.5 20.9364 74.2761 20.3959 73.8776 19.9974C73.4791 19.5989 72.9386 19.375 72.375 19.375H68.125V2.375C68.125 1.81141 67.9011 1.27091 67.5026 0.872398C67.1041 0.473883 66.5636 0.25 66 0.25H12.875C12.596 0.24999 12.3196 0.304946 12.0618 0.41173C11.804 0.518515 11.5697 0.675037 11.3724 0.87236L2.87238 9.37236C2.67506 9.56969 2.51854 9.80396 2.41175 10.0618C2.30497 10.3196 2.25001 10.5959 2.25002 10.875V95.875C2.25002 96.4386 2.4739 96.9791 2.87242 97.3776C3.27093 97.7761 3.81144 98 4.37502 98H6.50002V111.019C4.49687 111.536 2.75112 112.766 1.58999 114.479C0.428866 116.191 -0.0679149 118.268 0.192768 120.32C0.453451 122.373 1.4537 124.259 3.00603 125.627C4.55835 126.995 6.55618 127.749 8.62502 127.749C10.6939 127.749 12.6917 126.995 14.244 125.627C15.7963 124.259 16.7966 122.373 17.0573 120.32C17.318 118.268 16.8212 116.191 15.66 114.479C14.4989 112.766 12.7532 111.536 10.75 111.019V106.5H121.25V111.019C119.247 111.536 117.501 112.766 116.34 114.479C115.179 116.191 114.682 118.268 114.943 120.32C115.203 122.373 116.204 124.259 117.756 125.627C119.308 126.995 121.306 127.749 123.375 127.749C125.444 127.749 127.442 126.995 128.994 125.627C130.546 124.259 131.547 122.373 131.807 120.32C132.068 118.268 131.571 116.191 130.41 114.479C129.249 112.766 127.503 111.536 125.5 111.019ZM70.25 36.375C70.25 37.5022 69.8023 38.5832 69.0052 39.3802C68.2082 40.1772 67.1272 40.625 66 40.625C64.8728 40.625 63.7918 40.1772 62.9948 39.3802C62.1978 38.5832 61.75 37.5022 61.75 36.375V32.125H70.25V36.375ZM70.25 23.625V27.875H61.75V23.625H70.25ZM121.25 78.875C121.252 77.557 121.661 76.2718 122.422 75.1956C123.183 74.1194 124.258 73.305 125.5 72.8642V93.75H121.25V78.875ZM59.625 72.5H104.25C105.377 72.5013 106.457 72.9495 107.254 73.7463C108.05 74.543 108.499 75.6232 108.5 76.75V85.25H59.625V72.5ZM40.4588 79.7781C41.7782 77.5612 43.6506 75.725 45.8929 74.4491C48.1351 73.1733 50.6702 72.5017 53.25 72.5H55.375V85.25H38.3692C39.5676 83.6595 40.292 81.7626 40.4588 79.7781ZM29.875 72.5C31.1359 72.5 32.3684 72.8739 33.4168 73.5744C34.4651 74.2749 35.2822 75.2705 35.7647 76.4354C36.2473 77.6003 36.3735 78.8821 36.1275 80.1187C35.8815 81.3553 35.2744 82.4912 34.3828 83.3828C33.4913 84.2744 32.3553 84.8815 31.1187 85.1275C29.8821 85.3735 28.6003 85.2472 27.4354 84.7647C26.2705 84.2822 25.2749 83.4651 24.5744 82.4168C23.8739 81.3684 23.5 80.1359 23.5 78.875C23.502 77.1849 24.1743 75.5645 25.3694 74.3694C26.5645 73.1743 28.1849 72.502 29.875 72.5ZM15 89.5H117V93.75H15V89.5ZM12.875 119.25C12.875 120.091 12.6258 120.912 12.1588 121.611C11.6918 122.31 11.028 122.855 10.2514 123.176C9.47484 123.498 8.62031 123.582 7.79589 123.418C6.97147 123.254 6.21419 122.85 5.61982 122.255C5.02544 121.661 4.62067 120.904 4.45668 120.079C4.2927 119.255 4.37686 118.4 4.69853 117.624C5.0202 116.847 5.56494 116.183 6.26385 115.716C6.96276 115.249 7.78445 115 8.62502 115C9.75178 115.001 10.832 115.45 11.6287 116.246C12.4255 117.043 12.8737 118.123 12.875 119.25ZM6.50002 93.75V51.6142C7.7421 52.055 8.81735 52.8694 9.57826 53.9456C10.3392 55.0218 10.7485 56.307 10.75 57.625V93.75H6.50002ZM10.75 102.25V98H121.25V102.25H10.75ZM123.375 123.5C122.534 123.5 121.713 123.251 121.014 122.784C120.315 122.317 119.77 121.653 119.449 120.876C119.127 120.1 119.043 119.245 119.207 118.421C119.371 117.596 119.775 116.839 120.37 116.245C120.964 115.65 121.721 115.246 122.546 115.082C123.37 114.918 124.225 115.002 125.001 115.324C125.778 115.645 126.442 116.19 126.909 116.889C127.376 117.588 127.625 118.409 127.625 119.25C127.624 120.377 127.175 121.457 126.379 122.254C125.582 123.05 124.502 123.499 123.375 123.5Z" fill="black" fill-opacity="0.1"/>
</svg>
